<svg width="489" height="489" viewBox="0 0 489 489" fill="none" xmlns="http://www.w3.org/2000/svg">
<g clip-path="url(#clip0)">
<path d="M40.2402 161.254C36.5792 161.381 32.9182 161.952 29.4632 163.432L10.9282 171.332C6.15415 173.368 2.49815 177.371 0.870154 182.321C-0.720846 187.262 -0.115846 192.654 2.55815 197.11L14.6482 217.294L40.2402 161.254Z" fill="#0A9CCF" fill-opacity="0.3"/>
<path d="M486.818 56.3932C477.639 34.8412 421.483 38.1432 399.94 47.3252L308.445 86.3412L187.692 43.9972C186.306 47.0862 184.685 50.0212 182.693 52.7112C185.005 59.0982 186.481 65.8942 186.481 73.0712C186.481 87.2212 181.374 100.081 173.162 110.367C172.944 110.651 172.702 110.925 172.466 111.202H176.267H180.642C189.125 111.202 195.999 118.076 195.999 126.549V126.636C196.84 127.98 197.73 129.269 198.401 130.748L262.363 270.859C270.768 289.286 262.653 311.027 244.227 319.438C235.665 323.336 228.312 323.383 220.645 321.563L230.636 363.123C231.768 367.825 234.903 371.788 239.229 373.967C243.556 376.13 248.614 376.3 253.074 374.397L286.55 360.116C291.082 358.183 294.508 354.31 295.892 349.569L350.608 160.609L433.226 125.379C454.789 116.182 496.016 77.9382 486.818 56.3932Z" fill="#0A9CCF" fill-opacity="0.3"/>
<path d="M236.973 303.535C246.613 299.136 250.842 287.76 246.455 278.126L189.173 152.623C186.686 154.317 183.872 155.542 180.641 155.542H153.368C144.889 155.542 138.016 148.668 138.016 140.193V132.078C134.21 132.835 130.301 133.265 126.289 133.265C122.265 133.265 118.349 132.835 114.543 132.078V140.193C114.543 148.668 107.668 155.542 99.2082 155.542H71.9012C68.6882 155.542 65.8562 154.317 63.4052 152.623L6.10622 278.126C1.70022 287.76 5.96622 299.136 15.5942 303.535C25.1552 307.913 36.5802 303.743 41.0042 294.053L71.9012 226.342C71.9012 226.342 71.8712 283.799 71.8712 465.089C71.8712 477.803 82.1642 488.106 94.8782 488.106C107.592 488.106 117.891 477.803 117.891 465.089V327.921H134.678V465.088C134.678 477.802 144.971 488.105 157.703 488.105C170.398 488.105 180.71 477.802 180.71 465.088C180.71 337.379 180.644 267.56 180.644 226.341L211.56 294.052C215.982 303.743 227.394 307.913 236.973 303.535Z" fill="#0A9CCF" fill-opacity="0.3"/>
<path d="M99.2104 126.551H71.9014V140.194H99.2104V126.551Z" fill="#0A9CCF" fill-opacity="0.3"/>
<path d="M180.642 126.551H153.369V140.194H180.642V126.551Z" fill="#0A9CCF" fill-opacity="0.3"/>
<path d="M145.206 71.748H107.355C98.1271 71.748 89.5651 69.011 82.3091 64.381C81.7711 67.197 81.4321 70.093 81.4321 73.071C81.4321 97.843 101.498 117.916 126.29 117.916C151.046 117.916 171.129 97.844 171.129 73.071C171.129 70.092 170.809 67.188 170.27 64.375C163.014 69.01 154.434 71.748 145.206 71.748Z" fill="#0A9CCF" fill-opacity="0.3"/>
<path d="M78.043 35.8828C82.466 47.8338 93.861 56.4018 107.356 56.4018H145.207C158.689 56.4018 170.095 47.8338 174.519 35.8828H78.043Z" fill="#0A9CCF" fill-opacity="0.3"/>
<path d="M72.7291 20.5463H179.85L185.816 12.3253C187.516 9.97134 187.771 6.85134 186.451 4.25934C185.132 1.65734 182.458 0.0273438 179.559 0.0273438H73.0141C70.0921 0.0273438 67.4291 1.65734 66.1101 4.25934C64.7731 6.85234 65.0271 9.97234 66.7461 12.3253L72.7291 20.5463Z" fill="#0A9CCF" fill-opacity="0.3"/>
</g>
<defs>
<clipPath id="clip0">
<rect width="488.135" height="488.135" fill="white"/>
</clipPath>
</defs>
</svg>
