<svg width="512" height="512" viewBox="0 0 512 512" fill="none" xmlns="http://www.w3.org/2000/svg">
<path d="M105.046 168.773H0V478.285H105.046V168.773ZM69.404 371.342H35.642V341.342H69.404V371.342ZM69.404 303.819H35.642V273.819H69.404V303.819ZM35.642 236.296V206.296H69.404V236.296H35.642Z" fill="#0A9CCF" fill-opacity="0.3"/>
<path d="M406.954 478.286H512V168.773H406.954V478.286ZM442.597 206.296H476.358V236.296H442.597V206.296ZM442.597 273.819H476.358V303.819H442.597V273.819ZM476.357 341.342V371.342H442.596V341.342H476.357Z" fill="#0A9CCF" fill-opacity="0.3"/>
<path d="M203.477 438.867H241V478.288H203.477V438.867Z" fill="#0A9CCF" fill-opacity="0.3"/>
<path d="M271 438.867H308.522V478.288H271V438.867Z" fill="#0A9CCF" fill-opacity="0.3"/>
<path d="M135.046 478.287H173.477V408.866H338.522V478.287H376.954V33.7148H135.046V478.287ZM272.881 371.343H239.119V341.343H272.881V371.343ZM272.881 303.82H239.119V273.82H272.881V303.82ZM272.881 236.297H239.119V206.297H272.881V236.297ZM340.403 371.343H306.642V341.343H340.403V371.343ZM340.403 303.82H306.642V273.82H340.403V303.82ZM340.403 236.297H306.642V206.297H340.403V236.297ZM205.358 105.053H241V69.4108H271V105.053H306.643V135.053H271V170.696H241V135.053H205.358V105.053ZM171.596 206.297H205.358V236.297H171.596V206.297ZM171.596 273.82H205.358V303.82H171.596V273.82ZM171.596 341.343H205.358V371.343H171.596V341.343Z" fill="#0A9CCF" fill-opacity="0.3"/>
</svg>
