<svg width="512" height="512" viewBox="0 0 512 512" fill="none" xmlns="http://www.w3.org/2000/svg">
<path d="M176 376C189.255 376 200 365.255 200 352C200 338.745 189.255 328 176 328C162.745 328 152 338.745 152 352C152 365.255 162.745 376 176 376Z" fill="#0A9CCF" fill-opacity="0.3"/>
<path d="M299.247 312L311.933 299.314L356.615 343.996L343.929 356.682L299.247 312Z" fill="#0A9CCF" fill-opacity="0.3"/>
<path d="M379.247 232.016L391.933 219.329L436.615 264.012L423.929 276.698L379.247 232.016Z" fill="#0A9CCF" fill-opacity="0.3"/>
<path d="M232 352C232 321.12 206.872 296 176 296C145.128 296 120 321.12 120 352C120 382.88 145.128 408 176 408C206.872 408 232 382.88 232 352ZM136 352C136 329.944 153.944 312 176 312C198.056 312 216 329.944 216 352C216 374.056 198.056 392 176 392C153.944 392 136 374.056 136 352Z" fill="#0A9CCF" fill-opacity="0.3"/>
<path d="M48 24C34.768 24 24 34.768 24 48V104H72V48C72 34.768 61.232 24 48 24Z" fill="#0A9CCF" fill-opacity="0.3"/>
<path d="M152 464C152 473 149.016 481.312 143.984 488H400C413.232 488 424 477.232 424 464V456H152V464Z" fill="#0A9CCF" fill-opacity="0.3"/>
<path d="M389.238 318.016L397.925 309.328L484.598 396.001L475.91 404.688L389.238 318.016Z" fill="#0A9CCF" fill-opacity="0.3"/>
<path d="M331.243 296.004L375.926 251.321L404.607 280.003L359.925 324.685L331.243 296.004Z" fill="#0A9CCF" fill-opacity="0.3"/>
<path d="M392 440V343.312L378 329.312L371.312 336L373.656 338.344C376.784 341.472 376.784 346.528 373.656 349.656L349.656 373.656C348.096 375.216 346.048 376 344 376C341.952 376 339.904 375.216 338.344 373.656L282.344 317.656C279.216 314.528 279.216 309.472 282.344 306.344L306.344 282.344C309.472 279.216 314.528 279.216 317.656 282.344L320 284.688L364.688 240L362.344 237.656C359.216 234.528 359.216 229.472 362.344 226.344L386.344 202.344C387.904 200.784 389.952 200 392 200V64C392 41.944 374.056 24 352 24H79.792C84.872 30.704 88 38.96 88 48V464C88 477.232 98.768 488 112 488C125.232 488 136 477.232 136 464V448C136 443.584 139.576 440 144 440H392ZM294.656 391.592L297.344 387.56C299.296 384.624 302.96 383.312 306.32 384.344C309.696 385.36 312 388.48 312 392C312 400.824 319.176 408 328 408H360V424H328C316.592 424 306.56 418 300.896 409C291.136 418.528 277.96 424 264 424V408C276.344 408 287.808 401.864 294.656 391.592ZM112 56H376V72H112V56ZM112 88H376V104H112V88ZM112 120H376V136H112V120ZM112 152H376V168H112V152ZM112 184H376V200H112V184ZM112 216H344V232H112V216ZM112 248H328V264H112V248ZM104 352C104 312.304 136.296 280 176 280C215.704 280 248 312.304 248 352C248 391.696 215.704 424 176 424C136.296 424 104 391.696 104 352Z" fill="#0A9CCF" fill-opacity="0.3"/>
</svg>
