<svg width="513" height="512" viewBox="0 0 513 512" fill="none" xmlns="http://www.w3.org/2000/svg">
<path d="M256.368 230.832L264.403 351.332H328.704L336.739 230.832H256.368Z" fill="#0A9CCF" fill-opacity="0.3"/>
<path d="M246.333 80.332L254.368 200.832H338.739L346.771 80.332H246.333Z" fill="#0A9CCF" fill-opacity="0.3"/>
<path d="M368.802 200.832H501.13L509.626 137.133C511.618 122.191 507.489 107.992 497.997 97.1484C488.501 86.3047 474.974 80.3359 459.899 80.3359H376.837L368.802 200.832Z" fill="#0A9CCF" fill-opacity="0.3"/>
<path d="M467.931 401.668H165.341C150.688 401.668 136.673 389.395 134.735 374.867L131.599 351.332H234.337L226.302 230.832H85.2666L104.997 378.836C106.892 393.031 114.185 406.32 125.536 416.258C133.95 423.625 143.903 428.531 154.321 430.582C150.079 438.391 147.665 447.336 147.665 456.832C147.665 487.254 172.415 512 202.833 512C233.251 512 258.001 487.254 258.001 456.832C258.001 447.77 255.79 439.219 251.899 431.668H330.501C326.61 439.219 324.399 447.77 324.399 456.832C324.399 487.254 349.146 512 379.567 512C409.985 512 434.731 487.254 434.731 456.832C434.731 447.77 432.521 439.219 428.634 431.668H467.931C476.216 431.668 482.931 424.949 482.931 416.668C482.931 408.383 476.216 401.668 467.931 401.668V401.668Z" fill="#0A9CCF" fill-opacity="0.3"/>
<path d="M62.0635 56.7969L81.2666 200.832H224.302L216.267 80.332H95.4658L91.8018 52.832C87.8486 23.207 67.2236 0 44.8447 0H18.0674C9.78223 0 3.06738 6.71484 3.06738 15C3.06738 23.2852 9.78223 30 18.0674 30H44.8447C49.6572 30 59.8447 40.1758 62.0635 56.7969Z" fill="#0A9CCF" fill-opacity="0.3"/>
<path d="M366.802 230.832L358.771 351.332H427.767C442.087 351.332 456.224 345.859 467.575 335.926C478.927 325.988 486.22 312.695 488.11 298.5L497.134 230.832H366.802Z" fill="#0A9CCF" fill-opacity="0.3"/>
</svg>
