<svg width="512" height="512" viewBox="0 0 512 512" fill="none" xmlns="http://www.w3.org/2000/svg">
<g clip-path="url(#clip0)">
<path d="M396.426 268.344H456.422V412H396.426V268.344Z" fill="#0A9CCF" fill-opacity="0.3"/>
<path d="M282.809 268.344H342.809V412H282.809V268.344Z" fill="#0A9CCF" fill-opacity="0.3"/>
<path d="M169.191 268.344H229.191V412H169.191V268.344Z" fill="#0A9CCF" fill-opacity="0.3"/>
<path d="M55.5781 268.344H115.574V412H55.5781V268.344Z" fill="#0A9CCF" fill-opacity="0.3"/>
<path d="M476.426 223.344V208.344H35.5781V223.344C35.5781 231.629 42.293 238.344 50.5781 238.344H461.426C469.707 238.344 476.426 231.629 476.426 223.344Z" fill="#0A9CCF" fill-opacity="0.3"/>
<path d="M496.992 442H15.0156C6.73047 442 0.015625 448.715 0.015625 457V497C0.015625 505.285 6.73047 512 15.0156 512H496.992C505.277 512 511.992 505.285 511.992 497V457C511.992 448.715 505.277 442 496.992 442Z" fill="#0A9CCF" fill-opacity="0.3"/>
<path d="M15.0001 178.344H497C503.711 178.344 509.606 173.887 511.434 167.43C513.258 160.973 510.578 154.086 504.863 150.57L263.863 2.22656C259.043 -0.742188 252.961 -0.742188 248.137 2.22656L7.13685 150.57C1.422 154.09 -1.25769 160.973 0.570438 167.43C2.39856 173.887 8.2931 178.344 15.0001 178.344V178.344ZM245.805 88.2266H266.199C274.484 88.2266 281.199 94.9414 281.199 103.227C281.199 111.512 274.484 118.227 266.199 118.227H245.805C237.52 118.227 230.805 111.512 230.805 103.227C230.805 94.9414 237.52 88.2266 245.805 88.2266V88.2266Z" fill="#0A9CCF" fill-opacity="0.3"/>
</g>
<defs>
<clipPath id="clip0">
<rect width="512" height="512" fill="white"/>
</clipPath>
</defs>
</svg>
