<svg width="464" height="464" viewBox="0 0 464 464" fill="none" xmlns="http://www.w3.org/2000/svg">
<path d="M273.168 295.977C290.168 295.977 304 282.145 304 265.145C304 257.902 305.711 250.656 308.953 244.191L323.055 215.977H332C334.207 215.977 336 214.184 336 211.977C336 211.105 335.719 210.273 335.191 209.566L332.215 205.602C319.176 188.215 312 166.68 312 144.945C312 136.137 308.566 127.855 302.344 121.633C296.121 115.406 287.832 111.977 279.031 111.977H229.617C213.238 111.977 197.984 119.312 187.754 132.098C180.168 141.566 176 153.465 176 165.594V183.977H160C151.176 183.977 144 191.152 144 199.977C144 208.801 151.176 215.977 160 215.977H176V223.977C176 251.902 165.121 278.168 145.367 297.922L142.414 300.871C143.375 308.359 144 315.902 144 323.496V331.695L184 358.359L224 331.695V300.328L181.703 287.641L186.297 272.312L265.176 295.977H273.168Z" fill="#0A9CCF" fill-opacity="0.3"/>
<path d="M113.754 224.367C122.695 237.656 129.809 252.113 134.887 267.336C136.426 271.953 137.762 276.617 138.91 281.312C150.824 267.336 158.023 250.238 159.648 231.977C142.168 231.785 128 217.504 128 199.977C128 182.328 142.352 167.977 160 167.977V165.594C160 149.84 165.414 134.398 175.258 122.105C188.535 105.496 208.352 95.9766 229.617 95.9766H279.031C291.32 95.9766 302.887 100.52 311.922 108.742L313.273 107.391C327.93 92.7344 336 73.2461 336 52.5117C336 35.832 330.488 19.2891 320.48 5.94531L316.777 1C275.496 10.9102 232.473 15.9766 189.113 15.9766H184.719C122.566 15.9766 72 66.543 72 128.695C72 147.809 76.9023 166.734 86.1836 183.434L113.754 224.367Z" fill="#0A9CCF" fill-opacity="0.3"/>
<path d="M338.703 373.922L254.602 350.559L236.664 422.281L184 378.391L131.336 422.289L113.398 350.566L29.2969 373.93C12.0469 378.711 0 394.559 0 412.465V463.977H368V412.465C368 394.559 355.953 378.711 338.703 373.922V373.922Z" fill="#0A9CCF" fill-opacity="0.3"/>
<path d="M128.824 346.273L140.664 393.672L170.648 368.688L134.617 344.664L128.824 346.273Z" fill="#0A9CCF" fill-opacity="0.3"/>
<path d="M227.336 393.672L239.176 346.273L233.383 344.664L197.352 368.688L227.336 393.672Z" fill="#0A9CCF" fill-opacity="0.3"/>
<path d="M431.191 311.168L419.879 299.855C438.016 281.727 448 257.617 448 231.977C448 206.336 438.016 182.223 419.879 164.098L431.191 152.785C452.352 173.938 464 202.055 464 231.977C464 261.895 452.352 290.016 431.191 311.168V311.168Z" fill="#0A9CCF" fill-opacity="0.3"/>
<path d="M408.566 288.543L397.258 277.23C409.344 265.145 416 249.07 416 231.977C416 214.879 409.344 198.809 397.258 186.719L408.566 175.406C423.672 190.512 432 210.609 432 231.977C432 253.344 423.672 273.441 408.566 288.543V288.543Z" fill="#0A9CCF" fill-opacity="0.3"/>
<path d="M385.945 265.922L374.633 254.609C380.672 248.559 384 240.52 384 231.977C384 223.434 380.672 215.391 374.633 209.344L385.945 198.031C395.008 207.105 400 219.152 400 231.977C400 244.801 395.008 256.848 385.945 265.922Z" fill="#0A9CCF" fill-opacity="0.3"/>
</svg>
